<svg id="Capa_1" enable-background="new 0 0 510.671 510.671" height="512" viewBox="0 0 510.671 510.671" width="512" xmlns="http://www.w3.org/2000/svg"><g><path d="m505.388 301.212c-3.366-3.227-7.964-4.972-12.631-4.769-25.596 1.077-48.96 8.168-69.472 21.055-2.709-4.998-5.68-9.857-8.934-14.53-2.367-3.4-7.043-4.235-10.44-1.869-3.399 2.367-4.236 7.042-1.869 10.44 13.209 18.969 21.548 41.179 24.115 64.227 2.588 23.232-.749 46.908-9.68 68.545l-18.286 45.741c-.432.006-.862.017-1.295.017h-71.699c-.539 0-1.075-.012-1.612-.021l-17.953-45.696c-.016-.04-.032-.08-.048-.119-22.979-55.665-7.703-119.464 38.012-158.755l17.451-14.999 17.45 14.998c1.133.974 2.309 2.022 3.593 3.206 3.048 2.807 7.792 2.61 10.598-.437s2.61-7.792-.437-10.598c-1.412-1.3-2.712-2.46-3.977-3.547l-22.339-19.2c-2.812-2.416-6.966-2.416-9.777 0l-5.757 4.948c-10.456-15.994-30.562-29.676-57.527-39.187 15.074-9.964 23.991-22.662 23.991-36.656 0-32.803-48.969-58.499-111.482-58.499-11.998 0-23.8.965-35.08 2.867-4.084.689-6.837 4.559-6.148 8.643s4.56 6.836 8.643 6.148c10.458-1.764 21.42-2.658 32.584-2.658 26.652 0 51.592 5.033 70.224 14.171 16.688 8.185 26.258 18.874 26.258 29.328s-9.571 21.143-26.258 29.328c-18.632 9.138-43.571 14.171-70.224 14.171s-51.592-5.033-70.224-14.171c-16.688-8.185-26.258-18.874-26.258-29.328 0-12.098 12.752-24.353 34.112-32.78 3.853-1.52 5.745-5.876 4.224-9.729-1.52-3.854-5.876-5.746-9.729-4.224-27.713 10.934-43.607 27.967-43.607 46.733 0 14 8.926 26.704 24.012 36.67-40.95 14.478-65.694 38.554-65.694 65.07 0 13.025 5.763 25.378 16.544 36.326-43.869 19.672-68.762 47.855-68.762 78.447 0 28.938 22.074 55.702 62.156 75.36 38.382 18.825 89.248 29.192 143.226 29.192 27.202 0 53.609-2.615 78.488-7.771 12.817 5.014 26.755 7.771 41.327 7.771h71.699c62.736 0 113.775-51.04 113.775-113.775v-77.702c0-4.719-1.876-9.116-5.283-12.382zm-198.59 187.133c-45.702-8.646-80.377-48.872-80.377-97.05v-77.702c0-.758.361-1.263.664-1.554.252-.242.794-.626 1.619-.609 23.267.979 44.42 7.449 62.873 19.23.206.131.416.249.629.358-15.718 37.105-16.628 79.797-.512 118.88zm-101.416 1.725c-51.734 0-100.253-9.823-136.621-27.66-34.668-17.002-53.761-38.983-53.761-61.891 0-13.027 6.131-25.705 18.222-37.68 11.493-11.382 28.187-21.704 48.447-29.985 9.496 6.634 21.127 12.526 34.697 17.443.843.306 1.706.451 2.554.451 3.067 0 5.946-1.896 7.052-4.947 1.411-3.894-.602-8.195-4.497-9.606-33.975-12.31-54.258-31.168-54.258-50.445 0-22.202 27.257-43.757 69.645-55.282 18.782 7.577 42.473 12.041 68.52 12.041 26.049 0 49.742-4.465 68.525-12.043 31.776 8.639 55.442 23.012 64.99 39.275l-5.078 4.365c-14.541 12.498-26.296 27.238-35.071 43.358-20.498-12.864-43.841-19.942-69.412-21.019-4.666-.203-9.266 1.542-12.631 4.769-3.407 3.266-5.283 7.663-5.283 12.381v36.03c-2.013.041-4.03.068-6.039.068-18.337 0-36.183-1.692-53.042-5.03-4.062-.809-8.009 1.836-8.813 5.9-.805 4.063 1.837 8.009 5.9 8.813 17.815 3.528 36.641 5.316 55.955 5.316 2.009 0 4.025-.028 6.039-.068v26.673c0 39.411 20.146 74.202 50.677 94.628-18.277 2.738-37.271 4.145-56.717 4.145zm290.289-98.775c0 48.28-34.82 88.574-80.665 97.105l15.367-38.442c9.861-23.888 13.558-50.117 10.691-75.852-1.653-14.839-5.481-29.358-11.26-43.049.241-.119.478-.251.71-.399 18.453-11.781 39.606-18.25 62.873-19.23.802-.025 1.366.367 1.619.609.303.291.664.796.664 1.554v77.704z"/><path d="m359.331 167.76v5.361c0 4.142 3.358 7.5 7.5 7.5s7.5-3.358 7.5-7.5v-5.361c0-12.559 10.218-22.777 22.777-22.777h37.553c38.222 0 69.318-31.096 69.318-69.317v-62.565c0-4.142-3.358-7.5-7.5-7.5s-7.5 3.358-7.5 7.5v62.565c0 29.951-24.367 54.317-54.318 54.317h-37.553c-20.83 0-37.777 16.947-37.777 37.777z"/><path d="m340.506 150.554c4.142 0 7.5-3.358 7.5-7.5v-21.384c0-20.531 16.703-37.233 37.234-37.233h5.375c21.065 0 38.203-17.137 38.203-38.202v-33.134c0-4.142-3.358-7.5-7.5-7.5s-7.5 3.358-7.5 7.5v33.134c0 12.794-10.409 23.202-23.203 23.202h-5.375c-28.802 0-52.234 23.432-52.234 52.233v21.383c0 4.143 3.358 7.501 7.5 7.501z"/></g></svg>