<svg id="Capa_1" enable-background="new 0 0 510 510" height="512" viewBox="0 0 510 510" width="512" xmlns="http://www.w3.org/2000/svg"><g><path d="m315 101.229c0-13.704-8.283-31.884-25.322-55.577-11.59-16.116-23.032-28.904-23.514-29.442l-11.164-12.44-11.164 12.44c-.481.537-11.924 13.325-23.514 29.442-17.039 23.694-25.322 41.873-25.322 55.577 0 33.084 26.916 60 60 60s60-26.915 60-60zm-60 30.001c-16.542 0-30-13.458-30-30 0-9.561 14.098-31.892 30-51.774 15.903 19.885 30 42.214 30 51.774 0 16.541-13.458 30-30 30z"/><path d="m498.514 311.229c7.14-7.967 11.486-18.485 11.486-30 0-24.814-20.186-45-45-45h-97.98c14.281-15.935 22.98-36.969 22.98-60v-15c-15 0-255 0-270 0v15c0 23.031 8.699 44.065 22.98 60h-67.98c-41.355 0-75 33.644-75 75 0 20.16 8.01 38.474 20.996 51.965-23.69 15.005-27.997 47.406-9.51 68.035-7.139 7.967-11.486 18.486-11.486 30 0 24.814 20.187 45 45 45h390c41.355 0 75-33.645 75-75 0-20.16-8.011-38.474-20.996-51.965 23.69-15.004 27.997-47.406 9.51-68.035zm-346.616-119.999h206.203c-6.677 25.85-30.195 45-58.102 45h-90c-27.905 0-51.424-19.151-58.101-45zm-76.898 74.999h390c8.272 0 15 6.729 15 15 0 8.272-6.728 15-15 15h-390v30h390c8.272 0 15 6.729 15 15 0 8.272-6.728 15-15 15-6.503 0-373.984 0-390 0-24.813 0-45-20.186-45-45s20.187-45 45-45zm360 210h-390c-8.271 0-15-6.728-15-15 0-8.271 6.729-15 15-15h390v-30h-390c-8.271 0-15-6.728-15-15 0-8.271 6.729-15 15-15h390c24.814 0 45 20.186 45 45s-20.186 45-45 45z"/></g></svg>