<svg id="Capa_1" enable-background="new 0 0 512 512" height="512" viewBox="0 0 512 512" width="512" xmlns="http://www.w3.org/2000/svg"><g><path d="m505.923 35.504c-1.879-2.822-4.87-4.783-8.2-5.377l-62.459-11.198c-3.29-.593-6.609.131-9.354 2.042-2.737 1.906-4.571 4.765-5.164 8.055l-14.145 78.917c-11.47-33.741-34.152-63.021-64.276-82.471-48.617-31.509-110.261-33.638-160.389-7.205-3.664 1.932-5.068 6.469-3.136 10.132 1.932 3.665 6.469 5.069 10.132 3.136 42.105-22.202 92.975-22.12 135.405.716-33.687 12.047-72.24 29.4-104.07 46.992-32.873 18.169-74.307 45.303-85.55 71.605-.025.054-.051.107-.075.161l-18.662-25.759c6.912-28.705 22.891-55.116 45.247-74.665 3.118-2.727 3.436-7.465.709-10.583s-7.465-3.436-10.583-.709c-21.056 18.413-36.986 42.348-45.953 68.668l-14.15-78.942c-.591-3.284-2.425-6.142-5.163-8.048-2.744-1.911-6.066-2.636-9.342-2.044l-62.465 11.198c-3.335.596-6.326 2.556-8.205 5.378-1.881 2.826-2.536 6.346-1.793 9.672l41.06 182.338c4.945 21.997 17.687 41.469 35.879 54.83l91.414 67.114c3.009 2.206 6.544 3.271 10.053 3.271 1.08 0 2.153-.122 3.211-.322v28.682c0 2.145-1.377 4.001-3.434 4.623-5.143 1.558-10.627 3.107-16.433 4.748-24.549 6.938-52.373 14.801-74.859 28.82-27.036 16.856-40.744 39.862-40.744 68.38v7.11c0 9.501 7.73 17.23 17.23 17.23h376.681c9.501 0 17.23-7.73 17.23-17.23v-7.11c0-32.568-17.057-57.027-52.145-74.773-3.696-1.87-8.208-.389-10.078 3.308-1.869 3.696-.388 8.208 3.308 10.078 29.961 15.152 43.915 34.659 43.915 61.387v7.11c0 1.23-1 2.23-2.23 2.23h-376.681c-1.229 0-2.23-1-2.23-2.23v-7.11c0-53.182 58.043-69.585 104.682-82.765 5.876-1.661 11.425-3.229 16.697-4.826 8.428-2.545 14.091-10.173 14.091-18.98v-43.047c.446-1.053.841-2.121 1.184-3.202 19.234 9.776 38.827 15.469 53.916 15.469 15.084 0 34.678-5.691 53.917-15.463.343 1.08.738 2.147 1.183 3.198v43.045c0 8.807 5.663 16.435 14.085 18.978 5.294 1.604 10.863 3.178 16.759 4.845 9.424 2.664 19.17 5.419 28.951 8.625.776.254 1.563.375 2.337.375 3.154 0 6.09-2.006 7.126-5.166 1.29-3.937-.855-8.173-4.791-9.463-10.075-3.302-19.972-6.1-29.543-8.805-5.826-1.647-11.329-3.203-16.495-4.768-2.051-.619-3.428-2.476-3.428-4.621v-28.683c1.058.199 2.131.322 3.211.322 3.51 0 7.047-1.066 10.058-3.273l91.411-67.111c18.191-13.36 30.933-32.833 35.878-54.827l41.062-182.355c.739-3.312.084-6.832-1.797-9.657zm-109.902 89.745-18.642 25.734c-14.607-43.083-55.174-72.924-101.97-72.924h-20.422c32.255-15.876 63.544-28.217 85.654-35.561 28.505 20.705 47.671 50.678 55.38 82.751zm-214.513 212.115-91.409-67.11c-15.273-11.217-25.971-27.565-30.123-46.032l-40.486-179.792 57.438-10.297 14.649 81.729c.199 1.111.646 2.163 1.309 3.077l47.054 64.951 8.839 49.349c.833 4.621-1.572 9.215-5.841 11.171-.792.363-1.625.625-2.468.776-5.585.998-10.953-2.736-11.959-8.321l-9.15-51.03c-.731-4.078-4.635-6.791-8.706-6.059-4.077.731-6.79 4.629-6.059 8.706l9.151 51.035c2.297 12.766 13.852 21.586 26.51 20.78.726 2.686.481 5.158 2.752 7.479l39.59 40.43c7.652 7.815 8.357 20.217 1.637 28.851-.628.811-1.855.946-2.728.307zm21.98-18.752c-1.031-7.668-4.44-15.048-10.17-20.899l-38.044-38.851-.828-4.05c7.125-5.69 10.769-14.937 9.095-24.224l-9.14-51.03c-.199-1.111-.646-2.164-1.309-3.078l-7.222-9.969c.693-3.286 1.582-6.572 2.652-9.81 7.33-17.115 34.409-39.386 76.438-62.9 9.781-1.239 13.038-.638 50.448-.742 44.058-.122 81.708 30.718 90.706 73.472l-7.207 9.948c-.662.914-1.109 1.966-1.309 3.076l-9.148 51.029c-1.691 9.432 2.107 18.602 9.102 24.216l-.83 4.061-38.044 38.851c-5.732 5.854-9.141 13.237-10.171 20.909-18.692 10.345-38.532 16.689-52.51 16.689-13.981 0-33.823-6.348-52.509-16.698zm248.534-94.388c-4.151 18.465-14.849 34.813-30.121 46.029l-91.406 67.107c-.877.643-2.104.506-2.738-.308-6.717-8.63-6.011-21.031 1.641-28.846l39.59-40.43c2.275-2.324 2.026-4.793 2.753-7.482 12.643.816 24.219-8.008 26.509-20.782l9.148-51.028c.731-4.077-1.981-7.975-6.059-8.706s-7.975 1.981-8.706 6.059l-9.148 51.028c-1.002 5.588-6.359 9.318-11.952 8.317-.835-.15-1.628-.397-2.371-.728-.063-.03-.127-.059-.191-.087-4.112-1.934-6.594-6.456-5.755-11.137l8.846-49.34 47.051-64.952c.662-.914 1.109-1.966 1.309-3.077l14.649-81.729 57.438 10.297z"/><path d="m217.883 189.492c-12.077-7.41-24.844-7.41-36.921 0-3.53 2.166-4.637 6.784-2.47 10.315 2.166 3.53 6.783 4.637 10.315 2.47 7.243-4.443 13.99-4.443 21.232 0 1.224.751 2.578 1.108 3.915 1.108 2.522 0 4.984-1.271 6.4-3.579 2.165-3.53 1.059-8.148-2.471-10.314z"/><path d="m323.193 202.277c1.224.751 2.578 1.108 3.915 1.108 2.522 0 4.984-1.271 6.4-3.579 2.167-3.531 1.06-8.149-2.47-10.315-12.077-7.41-24.844-7.409-36.921 0-3.53 2.166-4.637 6.784-2.47 10.315 2.166 3.53 6.782 4.637 10.315 2.47 7.24-4.441 13.988-4.442 21.231.001z"/><path d="m279.869 266.249c-15.169 6.564-32.569 6.564-47.738 0-3.803-1.645-8.217.104-9.862 3.905s.103 8.217 3.905 9.862c9.478 4.101 19.652 6.152 29.826 6.152s20.349-2.051 29.826-6.152c3.802-1.645 5.55-6.061 3.905-9.862s-6.061-5.55-9.862-3.905z"/></g></svg>