<svg id="Capa_1" enable-background="new 0 0 512 512" height="512" viewBox="0 0 512 512" width="512" xmlns="http://www.w3.org/2000/svg"><g><g><path d="m148.923 414.167h-80.813c-4.142 0-7.5 3.357-7.5 7.5s3.358 7.5 7.5 7.5h80.813c4.142 0 7.5-3.357 7.5-7.5s-3.358-7.5-7.5-7.5z"/><path d="m184.708 379.24v-44.447c0-9.705-7.896-17.602-17.602-17.602h-117.179c-9.706 0-17.602 7.896-17.602 17.602v44.447c0 9.705 7.896 17.602 17.602 17.602h117.179c9.706 0 17.602-7.897 17.602-17.602zm-137.383 0v-44.447c0-1.435 1.167-2.602 2.602-2.602h117.179c1.435 0 2.602 1.167 2.602 2.602v44.447c0 1.435-1.167 2.602-2.602 2.602h-117.179c-1.435 0-2.602-1.167-2.602-2.602z"/><path d="m124.679 168.545c4.142 0 7.5-3.357 7.5-7.5v-20.203c0-4.143-3.358-7.5-7.5-7.5s-7.5 3.357-7.5 7.5v20.203c0 4.143 3.358 7.5 7.5 7.5z"/><path d="m157.004 168.545c4.142 0 7.5-3.357 7.5-7.5v-20.203c0-4.143-3.358-7.5-7.5-7.5s-7.5 3.357-7.5 7.5v20.203c0 4.143 3.358 7.5 7.5 7.5z"/><path d="m92.354 168.545c4.142 0 7.5-3.357 7.5-7.5v-20.203c0-4.143-3.358-7.5-7.5-7.5s-7.5 3.357-7.5 7.5v20.203c0 4.143 3.357 7.5 7.5 7.5z"/><path d="m60.028 133.342c-4.142 0-7.5 3.357-7.5 7.5v20.203c0 4.143 3.358 7.5 7.5 7.5s7.5-3.357 7.5-7.5v-20.203c0-4.143-3.358-7.5-7.5-7.5z"/><path d="m180.347 222.269c-2.399-2.399-3.721-5.589-3.721-8.982v-13.455c11.642-3.278 20.204-13.985 20.204-26.661v-44.45c0-15.274-12.426-27.7-27.7-27.7h-20.789v-61.196c0-21.96-17.865-39.825-39.825-39.825s-39.825 17.865-39.825 39.825v61.194h-20.781c-15.279 0-27.71 12.426-27.71 27.7v44.45c0 12.675 8.563 23.38 20.207 26.66v13.456c0 3.393-1.322 6.583-3.721 8.982l-22.654 22.654c-9.049 9.05-14.032 21.08-14.032 33.877v205.499c0 15.275 12.428 27.703 27.703 27.703h161.626c15.276 0 27.704-12.428 27.704-27.703v-205.499c0-12.797-4.983-24.827-14.032-33.875zm-96.656-182.444c0-13.688 11.137-24.825 24.825-24.825s24.825 11.137 24.825 24.825v61.194h-49.65zm-59.053 215.705 22.655-22.655c5.232-5.232 8.114-12.189 8.114-19.589v-12.416h4.623c4.142 0 7.5-3.357 7.5-7.5s-3.358-7.5-7.5-7.5h-12.12c-7.008 0-12.71-5.697-12.71-12.7v-44.45c0-7.003 5.702-12.7 12.71-12.7h121.22c7.003 0 12.7 5.697 12.7 12.7v44.45c0 7.003-5.697 12.7-12.7 12.7h-74.1c-4.142 0-7.5 3.357-7.5 7.5s3.358 7.5 7.5 7.5h66.596v12.416c0 7.4 2.882 14.357 8.114 19.59l22.654 22.654c6.215 6.215 9.638 14.478 9.638 23.268v6.068h-187.032v-6.068c0-8.79 3.423-17.053 9.638-23.268zm164.691 241.47h-161.626c-7.004 0-12.703-5.698-12.703-12.703v-22.807h124.5c4.142 0 7.5-3.357 7.5-7.5s-3.358-7.5-7.5-7.5h-124.5v-146.624h187.033v146.624h-27.533c-4.142 0-7.5 3.357-7.5 7.5s3.358 7.5 7.5 7.5h27.533v22.807c0 7.005-5.699 12.703-12.704 12.703z"/><path d="m467.643 42.931c-28.094-27.705-65.146-42.886-104.549-42.886-.711 0-1.427.006-2.138.016-38.597.535-75.061 15.926-102.675 43.336-27.617 27.412-43.274 63.763-44.09 102.355-.558 26.387 5.866 52.446 18.578 75.36 12.097 21.806 29.602 40.357 50.674 53.72l-12.969 33.812c-1.838 4.809-.716 10.054 2.928 13.688 2.474 2.467 5.686 3.768 8.993 3.768 1.556 0 3.132-.288 4.662-.877 11.055-4.243 28.476-10.925 43.644-16.743l25.601-9.82c1.453-.554 2.939-.809 4.449-.789.772.011 1.546.021 2.329.021 19.442 0 38.365-3.696 56.242-10.984 3.835-1.564 5.677-5.941 4.113-9.777-1.564-3.834-5.936-5.679-9.777-4.113-16.069 6.553-33.087 9.875-50.578 9.875-.717 0-1.424-.01-2.079-.018-3.4-.077-6.781.527-10.059 1.776l-25.613 9.825c-13.227 5.073-28.165 10.803-39.108 15.003l11.67-30.426c2.317-6.029.025-12.876-5.448-16.279-19.39-12.063-35.489-28.985-46.557-48.937-11.426-20.596-17.2-44.028-16.697-67.767.732-34.685 14.817-67.367 39.66-92.026 24.841-24.657 57.626-38.502 92.315-38.983 36.142-.48 70.228 13.188 95.945 38.552 25.724 25.366 39.891 59.232 39.891 95.357 0 21.624-4.993 42.259-14.841 61.332-9.398 18.204-23.103 34.273-39.633 46.474-3.332 2.459-4.04 7.155-1.58 10.488 2.46 3.332 7.154 4.04 10.488 1.58 18.371-13.559 33.604-31.423 44.054-51.661 10.802-20.922 16.512-44.51 16.512-68.213 0-40.171-15.753-77.83-44.357-106.039z"/><path d="m428.457 203.24c19.34-5.714 32.98-18.325 33.644-18.946 1.515-1.418 2.373-3.4 2.373-5.475s-.859-4.056-2.374-5.474c-.49-.46-9.882-9.151-24.018-15.395 19.454-22.476 22.976-52.361 23.133-53.784.224-2.026-.388-4.056-1.691-5.622-1.305-1.566-3.19-2.535-5.224-2.682-1.351-.097-28.927-1.891-53.772 11.166-3.454-35.022-31.021-61.741-32.27-62.934-2.9-2.768-7.461-2.768-10.361 0-1.248 1.192-28.815 27.911-32.27 62.934-24.845-13.056-52.425-11.263-53.772-11.166-2.033.146-3.919 1.115-5.224 2.682-1.304 1.566-1.915 3.596-1.691 5.622.157 1.423 3.679 31.304 23.135 53.784-14.139 6.242-23.529 14.935-24.02 15.395-1.515 1.418-2.374 3.399-2.374 5.474s.858 4.057 2.373 5.475c.663.621 14.304 13.233 33.644 18.946-4.501 10.334-5.673 19.377-5.733 19.864-.479 3.854 2.062 7.437 5.858 8.257 1.167.252 28.785 6.005 48.831-8.229 3.443-2.445 6.381-5.311 8.924-8.373v32.219c0 4.143 3.357 7.5 7.5 7.5s7.5-3.357 7.5-7.5v-32.219c2.543 3.061 5.482 5.929 8.924 8.373 10.956 7.78 24.175 9.589 34.1 9.589 8.234 0 14.203-1.245 14.732-1.359 3.796-.82 6.338-4.403 5.858-8.258-.061-.487-1.234-9.53-5.735-19.864zm-17.54-1.206c3.402 5.359 5.505 11.127 6.754 15.536-7.834.462-20.247-.108-29.486-6.669-13.544-9.618-17.134-29.591-17.607-32.624v-2.003l15.252-15.252c2.929-2.93 2.929-7.678 0-10.607-2.93-2.928-7.678-2.928-10.607 0l-4.645 4.645v-11.858c0-4.143-3.357-7.5-7.5-7.5s-7.5 3.357-7.5 7.5v11.858l-4.645-4.645c-2.93-2.928-7.678-2.928-10.607 0-2.929 2.93-2.929 7.678 0 10.607l15.252 15.252v2.004c-.469 3.007-4.058 23.002-17.607 32.623-9.303 6.604-21.684 7.164-29.491 6.689 1.248-4.413 3.352-10.189 6.759-15.557 1.369-2.157 1.546-4.863.47-7.181-1.077-2.316-3.26-3.927-5.791-4.271-11.739-1.596-22.055-7.34-28.521-11.763 5.321-3.641 13.243-8.171 22.42-10.55 2.733-.708 4.838-2.893 5.443-5.65.606-2.759-.389-5.623-2.574-7.412-.122-.101-.246-.198-.37-.295l-.055-.041c-15.437-12.848-22.133-32.789-24.81-43.988 11.311.594 31.629 3.479 46.977 15.787 2.359 1.893 5.623 2.183 8.279.736 2.655-1.446 4.183-4.346 3.874-7.354-.203-1.979-.307-3.959-.307-5.884 0-23.308 14.728-43.97 22.815-53.558 8.093 9.562 22.794 30.155 22.794 53.558 0 1.932-.103 3.911-.306 5.884-.309 3.008 1.219 5.907 3.874 7.354 2.657 1.446 5.921 1.155 8.279-.736 15.349-12.31 35.668-15.194 46.974-15.787-2.68 11.206-9.387 31.152-24.852 44.022-.128.099-.255.198-.381.302-2.186 1.789-3.181 4.653-2.574 7.412.605 2.758 2.71 4.942 5.443 5.65 9.176 2.379 17.099 6.909 22.419 10.55-6.469 4.425-16.782 10.167-28.521 11.763-2.531.344-4.714 1.954-5.791 4.271-1.076 2.319-.899 5.025.47 7.182z"/></g></g></svg>