<svg id="Capa_1" enable-background="new 0 0 512 512" height="512" viewBox="0 0 512 512" width="512" xmlns="http://www.w3.org/2000/svg"><g><path d="m428.645 276.932c-7.266-7.952-11.268-18.264-11.268-29.035v-11.293h6.999c6.335 0 11.488-5.153 11.488-11.488v-35.749c0-6.334-5.153-11.488-11.488-11.488h-4.062v-56.139c0-5.297-4.31-9.607-9.606-9.607h-9.901v-31.591c0-4.142-3.357-7.5-7.5-7.5s-7.5 3.358-7.5 7.5v31.592h-52.977v-71.771c0-13.985 11.378-25.363 25.362-25.363h2.251c13.985 0 25.363 11.378 25.363 25.363v10.179c0 4.142 3.357 7.5 7.5 7.5s7.5-3.358 7.5-7.5v-10.179c.001-22.257-18.105-40.363-40.362-40.363h-2.251c-22.256 0-40.362 18.106-40.362 40.363v71.771h-9.901c-5.298 0-9.607 4.31-9.607 9.607v56.139h-4.061c-6.334 0-11.487 5.153-11.487 11.488v35.749c0 6.335 5.153 11.488 11.487 11.488h6.999v11.293c0 10.772-4.001 21.083-11.268 29.035-9.798 10.723-15.193 24.628-15.193 39.152v178.343c0 9.69 7.883 17.573 17.573 17.573h133.895c9.69 0 17.573-7.883 17.573-17.573v-178.343c-.002-14.526-5.398-28.431-15.196-39.153zm-138.847 76.871h29.522c-2.035 5.677-3.24 10.793-3.24 14.958 0 23.842 19.397 43.24 43.239 43.24s43.239-19.398 43.239-43.24c0-4.165-1.205-9.28-3.241-14.958h29.522v78.623h-139.041zm97.76 14.958c0 15.571-12.668 28.24-28.239 28.24s-28.239-12.669-28.239-28.24c0-8.854 10.762-30.642 28.239-57.291 17.476 26.649 28.239 48.437 28.239 57.291zm-74.236-241.627h91.993v50.746h-91.993zm-15.549 65.746h8.049 106.993 8.05v28.724h-123.092zm3.292 94.17c9.799-10.722 15.194-24.627 15.194-39.153v-11.293h86.118v11.293c0 14.524 5.395 28.429 15.194 39.153 7.266 7.951 11.268 18.262 11.268 29.034v22.719h-34.509c-.507 0-1.002.052-1.482.148-6.449-12.948-15.15-26.963-23.052-38.831-2.34-3.515-6.258-5.614-10.479-5.614s-8.139 2.099-10.479 5.614c-7.876 11.831-16.547 25.795-22.99 38.709-.172-.012-.344-.026-.519-.026h-35.532v-22.719c.001-10.77 4.002-21.082 11.268-29.034zm125.201 209.95h-133.894c-1.419 0-2.573-1.154-2.573-2.573v-47.001h139.041v47.001c-.001 1.419-1.155 2.573-2.574 2.573z"/><path d="m210.74 247.898v-11.293h6.944c6.365 0 11.543-5.178 11.543-11.543v-75.539c0-9.029-7.346-16.374-16.375-16.374h-77.053c-4.143 0-7.5 3.358-7.5 7.5s3.357 7.5 7.5 7.5h77.053c.758 0 1.375.617 1.375 1.374v28.358h-123.092v-28.358c0-.758.617-1.374 1.375-1.374h23.289c4.143 0 7.5-3.358 7.5-7.5s-3.357-7.5-7.5-7.5h-23.289c-9.029 0-16.375 7.346-16.375 16.374v75.539c0 6.365 5.178 11.543 11.543 11.543h6.943v11.293c0 10.772-4.001 21.083-11.267 29.035-9.798 10.722-15.194 24.627-15.194 39.152v178.343c0 9.69 7.883 17.573 17.573 17.573h133.895c9.69 0 17.573-7.883 17.573-17.573v-71.012c0-4.142-3.358-7.5-7.5-7.5-4.143 0-7.5 3.358-7.5 7.5v71.012c0 1.419-1.154 2.573-2.573 2.573h-133.894c-1.419 0-2.573-1.154-2.573-2.573v-47.001h76.93c9.205 0 16.693-7.489 16.693-16.694v-75.236c0-9.205-7.488-16.693-16.693-16.693h-76.93v-22.719c0-10.772 4.001-21.082 11.267-29.034 9.799-10.722 15.194-24.627 15.194-39.153v-11.293h86.118v11.293c0 14.525 5.396 28.43 15.194 39.153 7.266 7.952 11.268 18.263 11.268 29.034v77.331c0 4.142 3.357 7.5 7.5 7.5 4.142 0 7.5-3.358 7.5-7.5v-77.331c0-14.525-5.396-28.43-15.194-39.152-7.266-7.953-11.268-18.265-11.268-29.035zm-50.65 105.905c.934 0 1.693.76 1.693 1.693v75.236c0 .934-.76 1.694-1.693 1.694h-76.93v-78.623zm-68.955-160.923h123.092v28.724h-123.092z"/></g></svg>