<?xml version="1.0" encoding="iso-8859-1"?>
<!-- Generator: Adobe Illustrator 19.0.0, SVG Export Plug-In . SVG Version: 6.00 Build 0)  -->
<svg version="1.1" id="Capa_1" xmlns="http://www.w3.org/2000/svg" xmlns:xlink="http://www.w3.org/1999/xlink" x="0px" y="0px"
	 viewBox="0 0 511.999 511.999" style="enable-background:new 0 0 511.999 511.999;" xml:space="preserve">
<g>
	<g>
		<path d="M484.613,307.403c-5.51-5.625-11.693-10.514-18.369-14.592c25.381-4.09,45.198-25.904,45.736-52.118
			c0.466-22.637-7.46-43.455-22.316-58.62c-14.676-14.981-35.226-23.573-56.38-23.573h-1.419c6.179-7.22,10.144-16.858,10.144-28.5
			c0-38.496-30.974-61.5-60.918-61.5h-73.16c-16.291,0-32.148,6.606-43.505,18.125c-11.468,11.631-17.65,27.532-17.407,44.775
			c0.326,23.083,19.25,41.887,42.27,42.098c-7.396,5.376-13.878,12.079-19.075,19.912c-8.87,13.37-13.432,29.423-13.192,46.422
			c0.227,16.044,7.501,30.466,18.828,40.309c-19.351,3.608-37.413,13.041-51.253,27.078c-18.167,18.424-27.958,43.655-27.572,71.044
			c0.262,18.56,8.197,35.529,21.062,47.515c-10.053,1.798-20.286,2.721-30.586,2.721c-88.508,0-161.653-67.011-171.391-152.958
			l72.025,73.708c1.47,1.504,3.416,2.258,5.365,2.258c1.89,0,3.783-0.71,5.241-2.136c2.962-2.895,3.018-7.644,0.123-10.606
			l-72.544-74.24c5.823,0.634,11.609,1.558,17.321,2.776c24.552,5.233,47.212,15.556,67.35,30.68
			c32.369,24.312,55.258,59.279,64.45,98.461c0.946,4.033,4.982,6.537,9.015,5.589c4.033-0.946,6.535-4.982,5.589-9.015
			c-9.752-41.57-33.681-78.764-67.519-105.088c-3.452-26.618-2.592-53.452,2.589-79.812c8.12-41.309,26.764-79.937,54.01-111.985
			V286c0,4.142,3.358,7.5,7.5,7.5c4.142,0,7.5-3.358,7.5-7.5V94.113c23.496,27.022,40.496,58.108,50.512,92.437
			c1.16,3.976,5.323,6.259,9.3,5.099c3.976-1.16,6.259-5.324,5.099-9.3c-10.784-36.963-29.183-70.389-54.684-99.351
			c-4.254-4.831-10.395-7.601-16.849-7.601c-0.539,0-1.075,0.026-1.61,0.065c-0.017,0.002-0.034,0.002-0.05,0.004
			c-5.838,0.432-11.302,3.118-15.189,7.532c-30.516,34.657-51.353,76.923-60.258,122.229c-4.634,23.576-6.018,47.511-4.14,71.365
			c-16.962-10.553-35.34-18.236-54.866-22.909c-2.981-12.768-4.498-25.844-4.498-38.922c0-8.291,0.611-16.648,1.823-24.892
			l10.333,17.453c1.4,2.366,3.897,3.68,6.46,3.68c1.299,0,2.615-0.337,3.814-1.047c3.564-2.11,4.743-6.71,2.633-10.274
			l-11.088-18.728c10.043,3.844,19.745,8.635,28.864,14.268c1.19,0.73,2.55,1.12,3.94,1.12c2.62,0,5.01-1.33,6.38-3.56
			c2.18-3.51,1.09-8.14-2.42-10.31c-0.01-0.01-0.01-0.01-0.01-0.01c-10.44-6.45-21.58-11.9-33.12-16.18
			c-2.51-0.94-5.14-1.42-7.8-1.42h-0.03c-4.184,0-8.286,1.209-11.837,3.414c-0.048,0.027-0.097,0.048-0.144,0.076
			c-0.152,0.09-0.294,0.191-0.438,0.29c-0.657,0.436-1.299,0.895-1.911,1.401c-4.13,3.42-6.91,8.23-7.82,13.55
			c-1.75,10.28-2.63,20.77-2.63,31.17c0,12.013,1.176,24.02,3.486,35.826c-15.408-2.301-27.803-2.084-27.803-2.084
			c-4.36,0-7.553,3.476-7.571,7.457C0.002,255.972,0,255.986,0,256c0,103.388,84.112,187.5,187.5,187.5
			c16.19,0,32.235-2.091,47.752-6.166c3.932,1.825,8.084,3.292,12.429,4.333c5.072,1.216,10.269,1.833,15.447,1.833H445.9
			c17.31,0,33.693-6.622,46.134-18.646c12.504-12.085,19.585-28.253,19.939-45.527C512.545,351.54,502.828,325.996,484.613,307.403z
			 M445.9,428.5H263.128c-4.001,0-8.021-0.478-11.95-1.419c-4.021-0.964-7.829-2.397-11.384-4.219
			c-0.226-0.129-0.457-0.248-0.695-0.353c-16.152-8.591-26.807-25.45-27.075-44.457c-0.334-23.682,7.707-44.533,23.254-60.301
			c15.196-15.412,36.435-24.25,58.269-24.25h17.858c4.143,0,7.5-3.358,7.5-7.5c0-4.142-3.357-7.5-7.5-7.5
			c-21.413,0-39.081-17.441-39.385-38.879c-0.196-13.965,3.501-27.077,10.694-37.918c11.716-17.659,31.538-28.202,53.025-28.202
			h33.529c4.143,0,7.5-3.358,7.5-7.5c0-4.142-3.357-7.5-7.5-7.5h-33.529H289.68c-15.041,0-27.451-12.252-27.663-27.312
			c-0.238-16.914,6.986-27.842,13.089-34.032c8.558-8.679,20.522-13.657,32.824-13.657h73.16c22.571,0,45.918,17.393,45.918,46.5
			c0,18.511-14.254,28.5-27.665,28.5c-4.143,0-7.5,3.358-7.5,7.5c0,4.142,3.357,7.5,7.5,7.5h33.94
			c17.148,0,33.793,6.951,45.665,19.07c12.186,12.439,18.422,28.973,18.035,47.814c-0.433,21.017-18.09,38.116-39.362,38.116
			h-42.145h-74.143c-4.143,0-7.5,3.358-7.5,7.5c0,4.142,3.357,7.5,7.5,7.5h74.143c21.937,0,43.231,8.894,58.421,24.4
			c15.593,15.917,23.573,37.051,23.079,61.12C496.417,406.303,473.504,428.5,445.9,428.5z"/>
	</g>
</g>
<g>
	<g>
		<circle cx="341.83" cy="204.5" r="7.5"/>
	</g>
</g>
<g>
	<g>
		<circle cx="381.84" cy="224.5" r="7.5"/>
	</g>
</g>
<g>
	<g>
		<circle cx="351.83" cy="244.5" r="7.5"/>
	</g>
</g>
<g>
	<g>
		<circle cx="251.83" cy="374.51" r="7.5"/>
	</g>
</g>
<g>
	<g>
		<circle cx="291.83" cy="324.51" r="7.5"/>
	</g>
</g>
<g>
	<g>
		<circle cx="391.84" cy="354.51" r="7.5"/>
	</g>
</g>
<g>
	<g>
		<circle cx="381.84" cy="124.5" r="7.5"/>
	</g>
</g>
<g>
	<g>
		<circle cx="310.83" cy="104.49" r="7.5"/>
	</g>
</g>
<g>
	<g>
		<circle cx="430.84" cy="194.5" r="7.5"/>
	</g>
</g>
<g>
</g>
<g>
</g>
<g>
</g>
<g>
</g>
<g>
</g>
<g>
</g>
<g>
</g>
<g>
</g>
<g>
</g>
<g>
</g>
<g>
</g>
<g>
</g>
<g>
</g>
<g>
</g>
<g>
</g>
</svg>
