<svg id="Capa_1" enable-background="new 0 0 511.788 511.788" height="512" viewBox="0 0 511.788 511.788" width="512" xmlns="http://www.w3.org/2000/svg"><g><g><g><g><path d="m405.996 459.09h.01z"/></g></g><path d="m422.346 430.817c-3.952-13.796-13.617-25.377-26.521-31.79 13.526-6.746 27.955-24.925 27.773-42.678-.127-12.414-8.463-23.195-21.235-27.468-3.927-1.314-8.177.805-9.492 4.733s.805 8.178 4.733 9.492c5.026 1.682 10.921 6.199 10.995 13.397.112 10.93-10.417 24.641-19.549 29.145-10.711 5.281-22.087 6.072-30.321 5.679-1.662-7.923-5.84-14.93-11.656-20.147 3.762-7.318 10.136-16.763 20.163-23.445.785-.523 1.602-1.022 2.429-1.484 3.616-2.02 4.911-6.589 2.891-10.205-2.02-3.617-6.59-4.91-10.205-2.891-1.14.636-2.266 1.325-3.352 2.046.92-15.087-7.61-36.671-23.074-45.389-11.638-6.561-26.242-3.944-36.343 6.51-9.972 10.32-15.168 24.48-14.271 38.862-3.668-2.427-8.216-4.432-13.194-5.838v-55.976c0-9.113-3.097-18.082-8.721-25.252l-26.331-33.577v-27.117h5.324c7.713 0 13.989-6.275 13.989-13.989v-39.056c0-7.713-6.275-13.989-13.989-13.989h-27.491v-85.592c-.001-19.188-15.611-34.798-34.799-34.798s-34.798 15.61-34.798 34.798v85.594h-27.491c-7.713 0-13.989 6.275-13.989 13.989v39.056c0 7.713 6.275 13.989 13.989 13.989h5.324v27.116l-9.992 12.742c-2.556 3.259-1.986 7.974 1.274 10.53 3.259 2.555 7.973 1.986 10.53-1.274l9.202-11.734h91.902l25.542 32.57c3.562 4.542 5.524 10.223 5.524 15.996v53.757c-8.014-.136-16.05 1.441-22.653 5.344-11.5 6.798-16.537 20.755-12.533 34.729 3.952 13.796 13.616 25.377 26.521 31.79-13.526 6.746-27.955 24.925-27.773 42.678.137 13.359 9.706 24.699 23.81 28.22 4.063 1.014 8.204 1.513 12.332 1.513.099 0 .198-.005.296-.005v9.411c0 8.802-7.161 15.963-15.962 15.963h-122.109c-8.802 0-15.962-7.161-15.962-15.963v-58.581h71.99c9.635 0 17.474-7.839 17.474-17.474v-87.929c0-9.635-7.839-17.474-17.474-17.474h-71.99v-25.978c0-3.602.733-7.101 2.178-10.401 1.662-3.794-.067-8.217-3.861-9.879s-8.218.067-9.879 3.861c-2.281 5.208-3.438 10.733-3.438 16.418v207.436c0 17.073 13.89 30.963 30.962 30.963h122.108c17.073 0 30.962-13.89 30.962-30.963v-11.741c4.619-1.438 9.058-3.525 13.162-6.249-.92 15.087 7.61 36.671 23.074 45.389 4.274 2.41 8.948 3.581 13.653 3.581 8.104 0 16.299-3.477 22.69-10.091 9.972-10.32 15.168-24.48 14.271-38.863 7.374 4.879 18.284 8.07 29.135 8.07 7.7 0 15.368-1.607 21.712-5.357 11.5-6.798 16.537-20.755 12.534-34.73zm-262.045-396.019c0-10.917 8.881-19.798 19.798-19.798s19.798 8.881 19.798 19.798v85.594h-39.596zm61.763 175.007h-83.929v-22.38h83.929zm-103.243-37.38v-37.033h122.555v37.033zm-15.738 141.924h71.99c1.364 0 2.474 1.11 2.474 2.474v87.929c0 1.364-1.11 2.474-2.474 2.474h-71.99zm133.266 48.721c-1.743-6.082-.642-13.909 5.746-17.685 9.41-5.562 26.548-3.3 35.015 2.357 9.939 6.641 16.312 16.109 20.089 23.441-5.816 5.218-9.994 12.226-11.654 20.151-8.216.397-19.574-.407-30.361-5.744-9.169-4.536-16.034-12.744-18.835-22.52zm40.69 87.214c-8.512 5.673-19.053 7.514-28.919 5.051-6.139-1.532-12.368-6.399-12.444-13.819-.112-10.93 10.417-24.641 19.549-29.145 10.707-5.279 22.087-6.075 30.321-5.684 1.661 7.925 5.839 14.933 11.657 20.151-3.762 7.318-10.135 16.763-20.164 23.446zm33.328-143.538c4.396-4.551 11.727-7.509 18.19-3.867 9.521 5.368 16.131 21.342 15.465 31.502-.782 11.926-5.788 22.175-10.245 29.105-3.666-1.204-7.576-1.865-11.64-1.865-4.053 0-7.953.657-11.61 1.855-4.467-6.951-9.478-17.219-10.246-29.159-.655-10.21 3.02-20.259 10.086-27.571zm23.541 184.527c-4.396 4.55-11.727 7.511-18.19 3.867-9.521-5.368-16.131-21.342-15.465-31.502.782-11.924 5.788-22.174 10.245-29.105 3.666 1.204 7.576 1.865 11.64 1.865 4.052 0 7.952-.656 11.609-1.854 4.467 6.949 9.479 17.215 10.247 29.159.655 10.209-3.021 20.258-10.086 27.57zm-11.771-69.876c-12.345 0-22.388-10.043-22.388-22.388s10.043-22.388 22.388-22.388 22.388 10.043 22.388 22.388-10.043 22.388-22.388 22.388zm80.042 31.237c-9.409 5.562-26.548 3.3-35.015-2.357-9.941-6.643-16.313-16.111-20.089-23.441 5.816-5.218 9.993-12.225 11.653-20.149 8.217-.398 19.573.405 30.361 5.741 9.169 4.537 16.035 12.745 18.835 22.52 1.744 6.083.643 13.91-5.745 17.686z"/></g></g></svg>